<svg xmlns="http://www.w3.org/2000/svg" width="640" height="80" viewBox="0 0 640 80">
  <view id="headgear" viewBox="0 0 80 80"/><view id="clothing" viewBox="80 0 80 80"/><view id="device" viewBox="160 0 80 80"/><view id="medical" viewBox="240 0 80 80"/><view id="document" viewBox="320 0 80 80"/><view id="food" viewBox="400 0 80 80"/><view id="tool" viewBox="480 0 80 80"/><view id="utility" viewBox="560 0 80 80"/>
  <g stroke="#37453f" stroke-width="1.5" stroke-linejoin="round">
    <g><ellipse cx="40" cy="65" rx="28" ry="5" fill="#273d34" opacity=".15" stroke="none"/><path d="M15 44c1-20 13-29 26-27s24 12 25 31l-24 12z" fill="#e5bf4d"/><path d="M41 17v36l25-5C65 29 54 19 41 17z" fill="#b18c2a"/><path d="M13 43l29 12 26-8 3 7-29 10L9 50z" fill="#f5d66d"/><path d="M36 18l7-1 1 31-6 2z" fill="#ffe8a0"/><path d="M29 37l11 4v13l-11-4z" fill="#4c5550"/><path d="M31 39l7 3v8l-7-3z" fill="#edf5dc"/></g>
    <g transform="translate(80)"><ellipse cx="40" cy="71" rx="24" ry="4" fill="#273d34" opacity=".15" stroke="none"/><path d="M28 12l12 5 12-5 12 10 7 28-12 4-7-19 4 34-17 6-18-7 4-34-7 19-11-5 8-27z" fill="#e6eddf"/><path d="M40 17l12-5-3 14-9 8-10-8-2-14z" fill="#a0b2a6"/><path d="M40 34v39l16-5-4-35 7 20 12-4-7-28-12-9-3 14z" fill="#bfcdc1"/><path d="M42 34v36M28 47l8 2v10l-9-2M46 47l7-2" fill="none"/><path d="M48 30l8-2v9l-8 2z" fill="#7796a2"/><path d="M39 39h2m-2 9h2m-2 9h2" stroke="#69756c"/></g>
    <g transform="translate(160)"><ellipse cx="40" cy="71" rx="23" ry="4" fill="#273d34" opacity=".15" stroke="none"/><path d="M24 9l35 10v48l-10 6-30-12V14z" fill="#536c69"/><path d="M24 9l30 10v47L19 56V14z" fill="#91a99c"/><path d="M25 18l23 7v28l-23-8z" fill="#254846"/><path d="M28 35l4-4 4 9 4-7 5 4" fill="none" stroke="#bcdeb9" stroke-width="2"/><path d="M26 22l19 6" stroke="#6eaa93"/><path d="M25 50l8 3v6l-8-3z" fill="#e3c268"/><circle cx="43" cy="59" r="3" fill="#384f48"/></g>
    <g transform="translate(240)"><ellipse cx="40" cy="69" rx="27" ry="5" fill="#273d34" opacity=".15" stroke="none"/><path d="M12 29l37-12 20 12v31L33 74 12 61z" fill="#c7d7cc"/><path d="M12 29l21 13v32L12 61z" fill="#718d80"/><path d="M33 42l36-13v31L33 74z" fill="#e5eadc"/><path d="M28 24v-9l15-5 10 5v8M34 21v-4l9-3 4 3v7" fill="none" stroke-width="4"/><path d="M48 43l8-3v8l7-2v8l-7 3v8l-8 3v-8l-7 2v-8l7-3z" fill="#337666" stroke="none"/><path d="M15 38l15 9" stroke="#d1ded3"/></g>
    <g transform="translate(320)"><ellipse cx="40" cy="70" rx="23" ry="4" fill="#273d34" opacity=".15" stroke="none"/><path d="M18 20l30-11 18 12v41L36 76 18 61z" fill="#687e73"/><path d="M22 23l26-9 13 9v35L36 70 22 58z" fill="#f0ecd9"/><path d="M18 20l18 13 30-12M36 33v43" fill="none"/><path d="M27 28l9 7 20-8M40 41l15-7m-15 14 15-7m-15 14 15-7m-15 14 10-4" fill="none" stroke="#8a9786"/><path d="M21 22v38" stroke="#d4b65a" stroke-width="3"/></g>
    <g transform="translate(400)"><ellipse cx="40" cy="72" rx="19" ry="4" fill="#273d34" opacity=".15" stroke="none"/><path d="M27 17c0-7 26-7 26 0v47c0 10-26 10-26 0z" fill="#9aaea2"/><path d="M41 12c7 0 12 2 12 5v47c0 6-8 9-12 8z" fill="#607b6b"/><ellipse cx="40" cy="17" rx="13" ry="5" fill="#c4d1c3"/><path d="M29 9c0-6 22-6 22 0v8c0 6-22 6-22 0z" fill="#425c51"/><ellipse cx="40" cy="9" rx="11" ry="4" fill="#80978a"/><path d="M29 32c6 5 16 5 22 0v19c-6 5-16 5-22 0z" fill="#e4d5a4"/><path d="M36 37h8v9h-8z" fill="#a56943" stroke="none"/></g>
    <g transform="translate(480)"><ellipse cx="40" cy="71" rx="26" ry="4" fill="#273d34" opacity=".15" stroke="none"/><path d="M20 67l-6-7 31-33-1-10 8-10 1 12 7 5 9-5-6 13-11 2z" fill="#b2bfb5"/><path d="M20 67l-6-7 21-23 7 7z" fill="#ba8553"/><path d="M19 58l17-17" stroke="#edc18a" stroke-width="2"/><path d="M53 10l-5 10 5 9 9-1" fill="none" stroke="#d9e1d5" stroke-width="2"/></g>
    <g transform="translate(560)"><ellipse cx="40" cy="69" rx="26" ry="5" fill="#273d34" opacity=".15" stroke="none"/><path d="M12 31l32-10 24 10v26L38 70 12 57z" fill="#8e9b71"/><path d="M12 31l26 12 30-12M38 43v27" fill="none"/><path d="M19 36v17l12 6V42M44 43v17l16-6V37" fill="#687856"/><path d="M30 25V15l13-4 12 6v10M36 23v-6l7-2 6 5v6" fill="none" stroke-width="4"/><path d="M34 39l8-3v10l-8 3z" fill="#d3bb64"/></g>
  </g>
</svg>