<svg xmlns="http://www.w3.org/2000/svg" viewBox="0 0 32 32">
  <g stroke="#374b46" stroke-width="1.2" stroke-linejoin="round">
    <path d="M2 24l14-7 14 7-14 7z" fill="#8eab93"/>
    <path d="M5 12l12-6 11 6v12l-12 6-11-6z" fill="#b6c9c3"/>
    <path d="M5 12l11 6 12-6-11-6z" fill="#e1e8dc"/>
    <path d="M16 18v12l12-6V12z" fill="#7f9e94"/>
    <path d="M10 8V5l8-4 6 4v5l-8 4z" fill="#cbd8cd"/>
    <path d="M10 5l6 4 8-4M16 9v5" fill="none"/>
    <path d="M8 16l5 3v4l-5-3zM20 19l5-2v4l-5 2z" fill="#a8d9df"/>
    <path d="M17 24l3-2v6l-3 2z" fill="#344f48"/>
  </g>
</svg>